<svg id="visual" viewBox="0 0 960 540" width="960" height="540" xmlns="http://www.w3.org/2000/svg" xmlns:xlink="http://www.w3.org/1999/xlink" version="1.1"><path d="M616 540L627.2 528.8C638.3 517.7 660.7 495.3 676.5 472.8C692.3 450.3 701.7 427.7 688.3 405.2C675 382.7 639 360.3 624.5 337.8C610 315.3 617 292.7 628.3 270.2C639.7 247.7 655.3 225.3 662 202.8C668.7 180.3 666.3 157.7 655.7 135.2C645 112.7 626 90.3 621.3 67.8C616.7 45.3 626.3 22.7 631.2 11.3L636 0L960 0L960 11.3C960 22.7 960 45.3 960 67.8C960 90.3 960 112.7 960 135.2C960 157.7 960 180.3 960 202.8C960 225.3 960 247.7 960 270.2C960 292.7 960 315.3 960 337.8C960 360.3 960 382.7 960 405.2C960 427.7 960 450.3 960 472.8C960 495.3 960 517.7 960 528.8L960 540Z" fill="#3b82f6"></path><path d="M726 540L712.8 528.8C699.7 517.7 673.3 495.3 669.7 472.8C666 450.3 685 427.7 693.8 405.2C702.7 382.7 701.3 360.3 711.5 337.8C721.7 315.3 743.3 292.7 753.2 270.2C763 247.7 761 225.3 758.5 202.8C756 180.3 753 157.7 746.5 135.2C740 112.7 730 90.3 733 67.8C736 45.3 752 22.7 760 11.3L768 0L960 0L960 11.3C960 22.7 960 45.3 960 67.8C960 90.3 960 112.7 960 135.2C960 157.7 960 180.3 960 202.8C960 225.3 960 247.7 960 270.2C960 292.7 960 315.3 960 337.8C960 360.3 960 382.7 960 405.2C960 427.7 960 450.3 960 472.8C960 495.3 960 517.7 960 528.8L960 540Z" fill="#809ff9"></path><path d="M778 540L778.5 528.8C779 517.7 780 495.3 779.5 472.8C779 450.3 777 427.7 767.7 405.2C758.3 382.7 741.7 360.3 736.3 337.8C731 315.3 737 292.7 734.8 270.2C732.7 247.7 722.3 225.3 734.8 202.8C747.3 180.3 782.7 157.7 785.5 135.2C788.3 112.7 758.7 90.3 749.8 67.8C741 45.3 753 22.7 759 11.3L765 0L960 0L960 11.3C960 22.7 960 45.3 960 67.8C960 90.3 960 112.7 960 135.2C960 157.7 960 180.3 960 202.8C960 225.3 960 247.7 960 270.2C960 292.7 960 315.3 960 337.8C960 360.3 960 382.7 960 405.2C960 427.7 960 450.3 960 472.8C960 495.3 960 517.7 960 528.8L960 540Z" fill="#afbefc"></path><path d="M808 540L809.8 528.8C811.7 517.7 815.3 495.3 822.8 472.8C830.3 450.3 841.7 427.7 837 405.2C832.3 382.7 811.7 360.3 801.2 337.8C790.7 315.3 790.3 292.7 792.5 270.2C794.7 247.7 799.3 225.3 798.3 202.8C797.3 180.3 790.7 157.7 786.8 135.2C783 112.7 782 90.3 784.8 67.8C787.7 45.3 794.3 22.7 797.7 11.3L801 0L960 0L960 11.3C960 22.7 960 45.3 960 67.8C960 90.3 960 112.7 960 135.2C960 157.7 960 180.3 960 202.8C960 225.3 960 247.7 960 270.2C960 292.7 960 315.3 960 337.8C960 360.3 960 382.7 960 405.2C960 427.7 960 450.3 960 472.8C960 495.3 960 517.7 960 528.8L960 540Z" fill="#d8defe"></path><path d="M860 540L858.8 528.8C857.7 517.7 855.3 495.3 853.8 472.8C852.3 450.3 851.7 427.7 862.7 405.2C873.7 382.7 896.3 360.3 904.8 337.8C913.3 315.3 907.7 292.7 898.3 270.2C889 247.7 876 225.3 878.8 202.8C881.7 180.3 900.3 157.7 900.5 135.2C900.7 112.7 882.3 90.3 876.8 67.8C871.3 45.3 878.7 22.7 882.3 11.3L886 0L960 0L960 11.3C960 22.7 960 45.3 960 67.8C960 90.3 960 112.7 960 135.2C960 157.7 960 180.3 960 202.8C960 225.3 960 247.7 960 270.2C960 292.7 960 315.3 960 337.8C960 360.3 960 382.7 960 405.2C960 427.7 960 450.3 960 472.8C960 495.3 960 517.7 960 528.8L960 540Z" fill="#ffffff"></path></svg>